<svg width="80" height="26" xmlns="http://www.w3.org/2000/svg" stroke-width="0.00024000000000000003" stroke="#3275c3" role="img" fill="#3275c3">

 <g>
  <title>Layer 1</title>
  <g stroke-width="0.72" stroke="#CCCCCC" stroke-linejoin="round" stroke-linecap="round" id="SVGRepo_tracerCarrier">
   <path id="svg_1" d="m12.43243,18.96565a0.703,0.703 0 1 1 -0.002,1.406a0.703,0.703 0 0 1 0.002,-1.406m11.024,-4.347a0.703,0.703 0 1 1 0.001,-1.406a0.703,0.703 0 0 1 -0.001,1.406m0,-2.876a2.176,2.176 0 0 0 -2.174,2.174c0,0.233 0.039,0.465 0.115,0.691l-7.181,3.823a2.165,2.165 0 0 0 -1.784,-0.937c-0.829,0 -1.584,0.475 -1.95,1.216l-6.451,-3.402c-0.682,-0.358 -1.192,-1.48 -1.138,-2.502c0.028,-0.533 0.212,-0.947 0.493,-1.107c0.178,-0.1 0.392,-0.092 0.62,0.027l0.042,0.023c1.71,0.9 7.304,3.847 7.54,3.956c0.363,0.169 0.565,0.237 1.185,-0.057l11.564,-6.014c0.17,-0.064 0.368,-0.227 0.368,-0.474c0,-0.342 -0.354,-0.477 -0.355,-0.477c-0.658,-0.315 -1.669,-0.788 -2.655,-1.25c-2.108,-0.987 -4.497,-2.105 -5.546,-2.655c-0.906,-0.474 -1.635,-0.074 -1.765,0.006l-0.252,0.125c-4.722,2.335 -11.042,5.465 -11.402,5.684c-0.643,0.392 -1.042,1.173 -1.094,2.142c-0.08,1.537 0.703,3.14 1.824,3.727l6.822,3.518a2.175,2.175 0 0 0 2.15,1.862a2.177,2.177 0 0 0 2.173,-2.14l7.514,-4.073c0.38,0.298 0.853,0.461 1.337,0.461a2.176,2.176 0 0 0 2.174,-2.174a2.176,2.176 0 0 0 -2.174,-2.174"/>
  </g>
  <g stroke="null" id="SVGRepo_iconCarrier">
   <path stroke="null" id="svg_2" d="m12.43243,18.96565a0.703,0.703 0 1 1 -0.002,1.406a0.703,0.703 0 0 1 0.002,-1.406m11.024,-4.347a0.703,0.703 0 1 1 0.001,-1.406a0.703,0.703 0 0 1 -0.001,1.406m0,-2.876a2.176,2.176 0 0 0 -2.174,2.174c0,0.233 0.039,0.465 0.115,0.691l-7.181,3.823a2.165,2.165 0 0 0 -1.784,-0.937c-0.829,0 -1.584,0.475 -1.95,1.216l-6.451,-3.402c-0.682,-0.358 -1.192,-1.48 -1.138,-2.502c0.028,-0.533 0.212,-0.947 0.493,-1.107c0.178,-0.1 0.392,-0.092 0.62,0.027l0.042,0.023c1.71,0.9 7.304,3.847 7.54,3.956c0.363,0.169 0.565,0.237 1.185,-0.057l11.564,-6.014c0.17,-0.064 0.368,-0.227 0.368,-0.474c0,-0.342 -0.354,-0.477 -0.355,-0.477c-0.658,-0.315 -1.669,-0.788 -2.655,-1.25c-2.108,-0.987 -4.497,-2.105 -5.546,-2.655c-0.906,-0.474 -1.635,-0.074 -1.765,0.006l-0.252,0.125c-4.722,2.335 -11.042,5.465 -11.402,5.684c-0.643,0.392 -1.042,1.173 -1.094,2.142c-0.08,1.537 0.703,3.14 1.824,3.727l6.822,3.518a2.175,2.175 0 0 0 2.15,1.862a2.177,2.177 0 0 0 2.173,-2.14l7.514,-4.073c0.38,0.298 0.853,0.461 1.337,0.461a2.176,2.176 0 0 0 2.174,-2.174a2.176,2.176 0 0 0 -2.174,-2.174"/>
  </g>
  <text font-style="italic" font-weight="bold" transform="matrix(0.951214 0 0 1.10189 1.44153 5.83062)" stroke="#000" xml:space="preserve" text-anchor="start" font-family="'Rubik'" font-size="14" id="svg_4" y="11.50926" x="27.81705" stroke-width="0" fill="#0C372C">GitBook</text>
 </g>
</svg>